# xmcd
#
# Track frame offsets: 
#        150
#        13076
#        36299
#        53542
#        67353
#        92578
#        106181
#        126544
#        138249
#        164670
#        179209
#        203617
#        239424
#
# Disc length: 3400 seconds
#
# Revision: 2
# Processed by: cddbd v1.5.2PL0 Copyright (c) Steve Scherf et al.
# Submitted via: ExactAudioCopy v1.0b1
#
DISCID=c00d460d
DTITLE=Nina Simone - The Jazz Biography
DYEAR=2004
DGENRE=Jazz
TTITLE0=Cotton Eyed Joe
TTITLE1=Porgy
TTITLE2=Forbidden Fruit
TTITLE3=Gin House Blues
TTITLE4=Summertime
TTITLE5=The Other Woman
TTITLE6=L'il Liza Jane
TTITLE7=Work Song
TTITLE8=You Can Have Him
TTITLE9=Exactly Like You
TTITLE10=Trouble In Mind
TTITLE11=Under The Lowest
TTITLE12=Black Is The Colour Of My True Love's Hair
EXTD=YEAR: 2004
EXTT0=
EXTT1=
EXTT2=
EXTT3=
EXTT4=
EXTT5=
EXTT6=
EXTT7=
EXTT8=
EXTT9=
EXTT10=
EXTT11=
EXTT12=
PLAYORDER=
